<?xml version="1.0" standalone="no"?><!DOCTYPE svg PUBLIC "-//W3C//DTD SVG 1.1//EN" "http://www.w3.org/Graphics/SVG/1.1/DTD/svg11.dtd"><svg t="1778310790406" class="icon" viewBox="0 0 1024 1024" version="1.1" xmlns="http://www.w3.org/2000/svg" p-id="10829" xmlns:xlink="http://www.w3.org/1999/xlink" width="200" height="200"><path d="M331.4688 88.4736h354.2016c52.1216 0 95.6416 0 130.1504 4.608 36.4032 4.9152 69.3248 15.7184 95.744 42.1376s37.1712 59.2896 42.0864 95.744c4.608 34.5088 4.608 77.9776 4.608 130.0992V465.408a43.52 43.52 0 0 1-87.04 0V364.032c0-55.9104-0.0512-93.4912-3.84-121.5488-3.584-26.7776-9.8304-38.1952-17.408-45.7728-7.5264-7.5776-18.944-13.824-45.7728-17.408-28.0064-3.7376-65.5872-3.84-121.5488-3.84h-348.16c-55.9104 0-93.4912 0.1024-121.5488 3.84-26.7776 3.584-38.1952 9.8304-45.7728 17.408-7.5776 7.5776-13.824 18.9952-17.408 45.7728-3.7376 28.0576-3.84 65.6384-3.84 121.5488v116.0704c0 55.9104 0.1024 93.4912 3.84 121.5488 3.584 26.7776 9.8304 38.2464 17.408 45.7728 7.5776 7.5776 18.9952 13.824 45.7728 17.408 28.0576 3.7376 65.6384 3.84 121.5488 3.84h318.5664a43.52 43.52 0 0 1 0 87.04h-321.536c-52.1728 0-95.6416 0-130.1504-4.608-36.4544-4.9152-69.3248-15.6672-95.744-42.0864-26.4192-26.4704-37.2224-59.392-42.1376-95.744-4.608-34.56-4.608-78.0288-4.608-130.1504V361.0624c0-52.1216 0-95.5904 4.608-130.0992 4.9152-36.4544 15.7184-69.3248 42.1376-95.744s59.2896-37.2224 95.744-42.0864c34.5088-4.6592 77.9776-4.6592 130.0992-4.6592z" p-id="10830"></path><path d="M450.56 712.2432h95.1296v155.7504H450.56V712.192z" p-id="10831"></path><path d="M276.48 886.9376a47.616 47.616 0 0 1 47.616-47.616h330.2912a47.616 47.616 0 1 1 0 95.232H324.0448a47.616 47.616 0 0 1-47.616-47.616z" p-id="10832"></path><path d="M815.3088 436.6336a8949.8624 8949.8624 0 0 0 10.5984 0c28.3648 0 50.2784 0 69.4272 4.7616a159.5904 159.5904 0 0 1 116.224 116.224c4.7616 19.1488 4.7616 41.0624 4.7616 69.4272v112.4352c0 28.3648 0 50.2784-4.7616 69.4272a159.5904 159.5904 0 0 1-116.224 116.224c-19.1488 4.7616-41.0624 4.7616-69.4272 4.7616h-10.5984c-28.3648 0-50.2272 0-69.376-4.7616a159.5904 159.5904 0 0 1-116.224-116.224c-4.8128-19.1488-4.7616-41.0624-4.7616-69.4272V632.32v-5.2736c0-28.3648 0-50.2784 4.7616-69.4272a159.5904 159.5904 0 0 1 116.224-116.224c19.0976-4.8128 41.0112-4.7616 69.376-4.7616z m5.3248 87.04c-36.1984 0-46.336 0.3584-53.6576 2.1504a72.5504 72.5504 0 0 0-52.8384 52.8384c-1.8432 7.3216-2.1504 17.4592-2.1504 53.6576v101.888c0 36.1472 0.3072 46.2848 2.1504 53.6064 6.5024 26.0608 26.8288 46.3872 52.8384 52.8384 7.3216 1.8432 17.4592 2.1504 53.6576 2.1504 36.1472 0 46.336-0.3072 53.6576-2.1504a72.5504 72.5504 0 0 0 52.8384-52.8384c1.792-7.3216 2.1504-17.408 2.1504-53.6576V632.32c0-36.1984-0.3584-46.336-2.1504-53.6576a72.5504 72.5504 0 0 0-52.8384-52.8384c-7.3216-1.792-17.5104-2.1504-53.6576-2.1504z" p-id="10833"></path></svg>