<?xml version="1.0" standalone="no"?><!DOCTYPE svg PUBLIC "-//W3C//DTD SVG 1.1//EN" "http://www.w3.org/Graphics/SVG/1.1/DTD/svg11.dtd"><svg t="1778310838372" class="icon" viewBox="0 0 1024 1024" version="1.1" xmlns="http://www.w3.org/2000/svg" p-id="12902" xmlns:xlink="http://www.w3.org/1999/xlink" width="200" height="200"><path d="M846.08 938.666667H512a426.666667 426.666667 0 1 1 426.666667-426.666667v128a42.666667 42.666667 0 0 1-85.333334 0v-128a341.333333 341.333333 0 1 0-341.333333 341.333333h334.08a7.253333 7.253333 0 0 0 7.253333-7.253333V810.666667a42.666667 42.666667 0 0 1 85.333334 0v37.333333a19.413333 19.413333 0 0 1 0 3.626667A92.586667 92.586667 0 0 1 846.08 938.666667z" fill="#333333" p-id="12903"></path><path d="M512 768a42.666667 42.666667 0 0 1-42.666667-42.666667V298.666667a42.666667 42.666667 0 0 1 85.333334 0v426.666666a42.666667 42.666667 0 0 1-42.666667 42.666667zM341.333333 661.333333a42.666667 42.666667 0 0 1-42.666666-42.666666V405.333333a42.666667 42.666667 0 0 1 85.333333 0v213.333334a42.666667 42.666667 0 0 1-42.666667 42.666666zM682.666667 661.333333a42.666667 42.666667 0 0 1-42.666667-42.666666V405.333333a42.666667 42.666667 0 0 1 85.333333 0v213.333334a42.666667 42.666667 0 0 1-42.666666 42.666666z" fill="#333333" p-id="12904"></path></svg>